<svg xmlns="http://www.w3.org/2000/svg" width="267.103" height="78.518" viewBox="0 0 267.103 78.518">
  <g id="travel" transform="translate(-825.324 -504.871)">
    <path id="travel-2" data-name="travel" d="M847.63,522.258H837.16V536.84H825.324v10.471H837.16v21.122a16.169,16.169,0,0,0,1.014,5.765,15.275,15.275,0,0,0,2.815,4.739,13.039,13.039,0,0,0,4.164,3.2,11.562,11.562,0,0,0,5.1,1.141h13.2V572.8h-13.2a2.305,2.305,0,0,1-1.764-1.206,5.136,5.136,0,0,1-.854-3.042V547.311h16.389V536.84H847.63Zm56.107,14.582H886.325a14.377,14.377,0,0,0-5.726,1.139,15.163,15.163,0,0,0-4.679,3.129,14.226,14.226,0,0,0-3.151,4.666,14.675,14.675,0,0,0-1.125,5.748v31.752h10.47V551.42a3.972,3.972,0,0,1,1.195-2.911,4.085,4.085,0,0,1,3.016-1.2h17.412V536.84Zm1.935,38.272a12.413,12.413,0,0,0,3.187,4.224,16.787,16.787,0,0,0,4.723,2.854,15.145,15.145,0,0,0,5.747,1.084h33.915V551.749a14.8,14.8,0,0,0-7.04-12.632L946.09,539h-.114a19.827,19.827,0,0,0-3.576-1.48,13.449,13.449,0,0,0-3.917-.569H910.169v10.471h17.754l-11.807,5.708a18.181,18.181,0,0,0-4.6,3.026,23.128,23.128,0,0,0-3.633,4.11,20.738,20.738,0,0,0-2.441,4.739,14.353,14.353,0,0,0-.909,4.908,12.2,12.2,0,0,0,1.139,5.2Zm37.013-22.794.088,20.486h-23.54a4.836,4.836,0,0,1-3.028-.916,2.465,2.465,0,0,1-1.2-1.831,7.276,7.276,0,0,1,1.6-3.891,9.443,9.443,0,0,1,3.873-3.318Zm42.2,15.137-12.518-30.5h-11.5l19.12,46.434h9.787l19.124-46.434H997.4Zm31.848,13.771h.12a16.1,16.1,0,0,0,3.51,1.479,13.993,13.993,0,0,0,3.98.569h34.4V572.8h-24.01l11.95-5.708a18.342,18.342,0,0,0,4.61-3.025,23.111,23.111,0,0,0,3.64-4.111,20.653,20.653,0,0,0,2.45-4.738,14.525,14.525,0,0,0,.91-4.909,11.8,11.8,0,0,0-1.19-5.2,13.658,13.658,0,0,0-3.18-4.225,16.089,16.089,0,0,0-4.66-2.854,15.1,15.1,0,0,0-5.73-1.085h-19.19a14.5,14.5,0,0,0-5.74,1.138,14.936,14.936,0,0,0-7.89,7.91,14.677,14.677,0,0,0-1.13,5.747v16.73a14.434,14.434,0,0,0,1.93,7.341,14.586,14.586,0,0,0,5.11,5.292Zm3.32-29.567a4.168,4.168,0,0,1,1.2-2.975,4.005,4.005,0,0,1,3.03-1.259h19.31a4.86,4.86,0,0,1,3.03.915,2.469,2.469,0,0,1,1.2,1.832,4.53,4.53,0,0,1-.46,1.832,11.006,11.006,0,0,1-1.2,2.059,12.539,12.539,0,0,1-1.77,1.945,7.434,7.434,0,0,1-2.17,1.373l-22.17,10.529V551.659Zm56.79-29.946h-10.47v61.675h10.47V521.713Z" fill-rule="evenodd"/>
    <path id="_" data-name="®" d="M.042-29.736a8.293,8.293,0,0,1,4.263,1.092,7.827,7.827,0,0,1,2.94,3.024,8.771,8.771,0,0,1,1.071,4.326,8.653,8.653,0,0,1-1.071,4.305,7.868,7.868,0,0,1-2.94,3A8.292,8.292,0,0,1,.042-12.894a8.406,8.406,0,0,1-4.284-1.092,7.823,7.823,0,0,1-2.961-3,8.653,8.653,0,0,1-1.071-4.305A8.771,8.771,0,0,1-7.2-25.62a7.783,7.783,0,0,1,2.961-3.024A8.406,8.406,0,0,1,.042-29.736Zm0,15.456a6.429,6.429,0,0,0,4.893-1.974A7.035,7.035,0,0,0,6.8-21.294a7.035,7.035,0,0,0-1.869-5.04A6.429,6.429,0,0,0,.042-28.308a6.48,6.48,0,0,0-4.935,1.974,7.035,7.035,0,0,0-1.869,5.04,7.035,7.035,0,0,0,1.869,5.04A6.48,6.48,0,0,0,.042-14.28ZM3.7-23.142A2.6,2.6,0,0,1,3.108-21.4a2.783,2.783,0,0,1-1.638.9l2.52,3.612-2.142.042-2.31-3.57h-.966v3.57H-3.234v-9.03H.672a3.179,3.179,0,0,1,2.205.735A2.546,2.546,0,0,1,3.7-23.142Zm-5.124,1.218H.546a1.527,1.527,0,0,0,.966-.294A1.048,1.048,0,0,0,1.89-23.1a.99.99,0,0,0-.378-.861,1.609,1.609,0,0,0-.966-.273H-1.428Z" transform="translate(1084.111 534.607)"/>
  </g>
</svg>
